<svg height="20" width="118" xmlns="http://www.w3.org/2000/svg" xmlns:xlink="http://www.w3.org/1999/xlink"><linearGradient id="a" x2="0" y2="100%"><stop offset="0" stop-color="#bbb" stop-opacity=".1"/><stop offset="1" stop-opacity=".1"/></linearGradient><clipPath id="b"><rect height="20" rx="3" width="108"/></clipPath><g clip-path="url(#b)"><path d="m0 0h57v20h-57z" fill="#555"/><path d="m57 0h51v20h-51z" fill="#007ec6"/><path d="m0 0h109v20h-109z" fill="url(#a)"/></g><g fill="#fff" font-family="DejaVu Sans,Verdana,Geneva,sans-serif" font-size="11" text-anchor="middle"><text fill="#010101" fill-opacity=".3" x="34.5" y="15">riot</text><text x="34.5" y="14">riot</text><text fill="#010101" fill-opacity=".3" x="81.5" y="15">group</text><text x="81.5" y="14">group</text><g transform="matrix(.19 0 0 .19 0 -18.5)"><path d="m65.6 109.6h-22.2-.1c-6.2 0-11.2 5-11.2 11.2v55.8c0 6.2 5 11.2 11.2 11.2s11.2-5 11.2-11.2v-11.2h11.2c15.4 0 27.9-12.5 27.9-27.9s-12.7-27.9-28-27.9z" fill="#67bb96"/><g fill="#af69a8"><circle cx="43.200001" cy="120.7" r="11.2"/><path d="m91.4 170.1c3.5 5 2.3 12-2.7 15.5s-12 2.3-15.5-2.7l-16.7-23.9c-3.5-5-2.3-12 2.7-15.5s12-2.3 15.5 2.7z"/></g></g></g></svg>